<svg width="42" height="20" viewBox="0 0 42 20" fill="none" xmlns="http://www.w3.org/2000/svg">
<rect width="42" height="20" rx="4" fill="#F5626C"/>
<path d="M19.2479 14L17.1953 6.72727H18.6122L19.9226 12.0717H19.9901L21.3892 6.72727H22.6783L24.081 12.0753H24.1449L25.4553 6.72727H26.8722L24.8196 14H23.5199L22.0639 8.89702H22.0071L20.5476 14H19.2479ZM27.7289 14V8.54545H29.0144V14H27.7289ZM28.3752 7.77131C28.1716 7.77131 27.9964 7.70384 27.8496 7.56889C27.7028 7.43158 27.6294 7.26705 27.6294 7.07528C27.6294 6.88116 27.7028 6.71662 27.8496 6.58168C27.9964 6.44437 28.1716 6.37571 28.3752 6.37571C28.5811 6.37571 28.7563 6.44437 28.9007 6.58168C29.0475 6.71662 29.1209 6.88116 29.1209 7.07528C29.1209 7.26705 29.0475 7.43158 28.9007 7.56889C28.7563 7.70384 28.5811 7.77131 28.3752 7.77131ZM30.3931 14V6.72727H35.0522V7.83168H31.7106V9.80611H34.7326V10.9105H31.7106V14H30.3931ZM36.1957 14V8.54545H37.4812V14H36.1957ZM36.842 7.77131C36.6384 7.77131 36.4632 7.70384 36.3164 7.56889C36.1696 7.43158 36.0962 7.26705 36.0962 7.07528C36.0962 6.88116 36.1696 6.71662 36.3164 6.58168C36.4632 6.44437 36.6384 6.37571 36.842 6.37571C37.0479 6.37571 37.2231 6.44437 37.3675 6.58168C37.5143 6.71662 37.5877 6.88116 37.5877 7.07528C37.5877 7.26705 37.5143 7.43158 37.3675 7.56889C37.2231 7.70384 37.0479 7.77131 36.842 7.77131Z" fill="white"/>
<path d="M8.50011 13.6343C8.87353 13.6343 9.17624 13.3316 9.17624 12.9582C9.17624 12.5848 8.87353 12.282 8.50011 12.282C8.12669 12.282 7.82397 12.5848 7.82397 12.9582C7.82397 13.3316 8.12669 13.6343 8.50011 13.6343Z" fill="white"/>
<path d="M9.92989 10.6052C9.50337 10.3449 9.01235 10.2059 8.49997 10.2059C7.98758 10.2059 7.49658 10.3449 7.07004 10.6052C6.7778 10.7836 6.73149 11.1897 6.97357 11.4318L6.97519 11.4334C7.14729 11.6055 7.41518 11.6396 7.623 11.513C7.88463 11.3535 8.18576 11.2684 8.49997 11.2684C8.81417 11.2684 9.11527 11.3535 9.37693 11.513C9.58477 11.6396 9.85267 11.6055 10.0247 11.4334L10.0264 11.4318C10.2684 11.1897 10.2221 10.7836 9.92989 10.6052Z" fill="white"/>
<path d="M11.4672 9.14603C9.7293 7.79133 7.27083 7.79133 5.5329 9.14603C5.2809 9.34248 5.25658 9.71466 5.48253 9.94061L5.48379 9.94187C5.67185 10.1299 5.97174 10.1517 6.18127 9.98792C7.53861 8.92668 9.46156 8.92668 10.8189 9.98792C11.0284 10.1517 11.3283 10.1299 11.5164 9.94187L11.5176 9.94061C11.7436 9.71466 11.7192 9.34248 11.4672 9.14603Z" fill="white"/>
<path d="M12.9678 7.68544C11.7209 6.62536 10.1549 6.04761 8.50002 6.04761C6.84516 6.04761 5.27911 6.62534 4.0322 7.68544C3.79741 7.88507 3.78587 8.244 4.0038 8.46194C4.19867 8.65681 4.51148 8.67245 4.72154 8.49408C5.77633 7.5983 7.10066 7.11013 8.50002 7.11013C9.89937 7.11013 11.2237 7.5983 12.2785 8.49408C12.4886 8.67245 12.8014 8.65681 12.9962 8.46194C13.2141 8.244 13.2026 7.88507 12.9678 7.68544Z" fill="white"/>
</svg>
