<svg width="42" height="20" viewBox="0 0 42 20" fill="none" xmlns="http://www.w3.org/2000/svg">
<rect width="42" height="20" rx="4" fill="#909090"/>
<path d="M10.7038 5.39152C10.7912 5.09704 10.8104 4.83952 11.2218 5.12213C11.845 5.55031 12.6896 6.43476 13.3362 7.12724C13.7052 7.52233 13.7007 8.14301 13.3243 8.53096L11.8067 10.095C11.6466 10.2599 11.3819 10.2599 11.2218 10.095C11 9.80128 10.6369 10.095 9.46718 11.9032C8.29744 13.7115 5.66544 14.6157 4.93437 14.9171C4.34951 15.1582 4.10578 14.8166 4.05702 14.6157C3.76458 13.5609 4.6419 12.8074 5.66544 11.9032C6.68897 10.9991 6.98141 8.88942 7.12763 8.28665C7.27385 7.68389 7.27385 7.5332 8.00495 7.5332C8.5898 7.5332 8.88221 7.23187 9.02847 7.08115L9.02849 7.08112C9.14663 6.95938 10.1234 6.05103 10.4946 5.70633C10.5888 5.61884 10.6672 5.51478 10.7038 5.39152Z" fill="white"/>
<path d="M24.6939 6.72727V14H23.522L20.0952 9.04616H20.0348V14H18.7173V6.72727H19.8963L23.3196 11.6847H23.3835V6.72727H24.6939ZM28.4519 14.1065C27.9192 14.1065 27.4576 13.9893 27.0669 13.755C26.6763 13.5206 26.3733 13.1927 26.1578 12.7713C25.9448 12.3499 25.8382 11.8575 25.8382 11.294C25.8382 10.7306 25.9448 10.237 26.1578 9.81321C26.3733 9.38944 26.6763 9.06037 27.0669 8.82599C27.4576 8.59162 27.9192 8.47443 28.4519 8.47443C28.9846 8.47443 29.4462 8.59162 29.8368 8.82599C30.2275 9.06037 30.5293 9.38944 30.7424 9.81321C30.9578 10.237 31.0655 10.7306 31.0655 11.294C31.0655 11.8575 30.9578 12.3499 30.7424 12.7713C30.5293 13.1927 30.2275 13.5206 29.8368 13.755C29.4462 13.9893 28.9846 14.1065 28.4519 14.1065ZM28.459 13.0767C28.7478 13.0767 28.9893 12.9974 29.1834 12.8388C29.3775 12.6778 29.522 12.4624 29.6167 12.1925C29.7137 11.9226 29.7623 11.6219 29.7623 11.2905C29.7623 10.9567 29.7137 10.6548 29.6167 10.3849C29.522 10.1127 29.3775 9.89607 29.1834 9.73509C28.9893 9.5741 28.7478 9.49361 28.459 9.49361C28.1631 9.49361 27.9168 9.5741 27.7203 9.73509C27.5262 9.89607 27.3806 10.1127 27.2836 10.3849C27.1889 10.6548 27.1415 10.9567 27.1415 11.2905C27.1415 11.6219 27.1889 11.9226 27.2836 12.1925C27.3806 12.4624 27.5262 12.6778 27.7203 12.8388C27.9168 12.9974 28.1631 13.0767 28.459 13.0767ZM33.4421 10.804V14H32.1566V8.54545H33.3853V9.4723H33.4492C33.5747 9.1669 33.7747 8.92424 34.0494 8.74432C34.3263 8.56439 34.6684 8.47443 35.0756 8.47443C35.4521 8.47443 35.7799 8.55492 36.0593 8.71591C36.341 8.87689 36.5588 9.11009 36.7127 9.41548C36.869 9.72088 36.9459 10.0914 36.9435 10.527V14H35.658V10.7259C35.658 10.3613 35.5633 10.076 35.3739 9.87003C35.1869 9.66406 34.9277 9.56108 34.5962 9.56108C34.3713 9.56108 34.1713 9.6108 33.9961 9.71023C33.8233 9.80729 33.6871 9.94815 33.5877 10.1328C33.4906 10.3175 33.4421 10.5412 33.4421 10.804Z" fill="white"/>
</svg>
