<svg width="42" height="20" viewBox="0 0 42 20" fill="none" xmlns="http://www.w3.org/2000/svg">
<rect width="42" height="20" rx="4" fill="#E35200"/>
<path fill-rule="evenodd" clip-rule="evenodd" d="M9.77334 8.10234C9.73338 7.98963 9.62677 7.91431 9.50718 7.91431C9.3876 7.91431 9.28098 7.98963 9.24102 8.10234L6.90124 14.7018C6.8706 14.7883 6.88384 14.8842 6.93676 14.9591C6.98968 15.034 7.07569 15.0786 7.1674 15.0786H11.847C11.9387 15.0786 12.0247 15.034 12.0776 14.9591C12.1305 14.8842 12.1438 14.7883 12.1131 14.7018L9.77334 8.10234ZM10.8696 12.8844L11.4472 14.5138H7.56714L7.76441 13.9574L10.8696 12.8844ZM10.5034 11.8516L9.50718 9.04178L8.89118 10.7792L10.5034 11.8516ZM8.69659 11.3281L8.00584 13.2764L10.3881 12.4532L8.69659 11.3281Z" fill="white"/>
<path d="M9.53851 8.10472C9.93637 8.10464 10.2588 7.78205 10.2588 7.38419C10.2587 6.98633 9.93609 6.66386 9.53823 6.66393C9.14037 6.66401 8.8179 6.9866 8.81798 7.38447C8.81805 7.78233 9.14065 8.1048 9.53851 8.10472Z" fill="white"/>
<path fill-rule="evenodd" clip-rule="evenodd" d="M7.76034 9.62558C7.62249 9.76343 7.39899 9.76343 7.26114 9.62558C6.06619 8.43063 6.06619 6.49323 7.26114 5.29828C7.39899 5.16043 7.62249 5.16043 7.76034 5.29828C7.8982 5.43614 7.8982 5.65964 7.76034 5.79749C6.8411 6.71674 6.8411 8.20713 7.76034 9.12638C7.8982 9.26423 7.8982 9.48773 7.76034 9.62558Z" fill="white"/>
<path fill-rule="evenodd" clip-rule="evenodd" d="M6.30087 10.2635C6.16302 10.4014 5.93952 10.4014 5.80167 10.2635C4.25435 8.7162 4.25435 6.20751 5.80167 4.66019C5.93952 4.52234 6.16302 4.52234 6.30087 4.66019C6.43872 4.79804 6.43872 5.02154 6.30087 5.1594C5.02926 6.43101 5.02926 8.4927 6.30087 9.76432C6.43872 9.90217 6.43872 10.1257 6.30087 10.2635Z" fill="white"/>
<path fill-rule="evenodd" clip-rule="evenodd" d="M11.2397 9.62558C11.3775 9.76343 11.601 9.76343 11.7389 9.62558C12.9338 8.43063 12.9338 6.49323 11.7389 5.29828C11.601 5.16043 11.3775 5.16043 11.2397 5.29828C11.1018 5.43614 11.1018 5.65964 11.2397 5.79749C12.1589 6.71674 12.1589 8.20713 11.2397 9.12638C11.1018 9.26423 11.1018 9.48773 11.2397 9.62558Z" fill="white"/>
<path fill-rule="evenodd" clip-rule="evenodd" d="M12.6991 10.2635C12.837 10.4014 13.0605 10.4014 13.1983 10.2635C14.7456 8.7162 14.7456 6.20751 13.1983 4.66019C13.0605 4.52234 12.837 4.52234 12.6991 4.66019C12.5613 4.79804 12.5613 5.02155 12.6991 5.1594C13.9707 6.43101 13.9707 8.4927 12.6991 9.76432C12.5613 9.90217 12.5613 10.1257 12.6991 10.2635Z" fill="white"/>
<path d="M24.9425 9.18111H23.6143C23.5765 8.9633 23.5066 8.77036 23.4048 8.60227C23.303 8.43182 23.1764 8.28741 23.0249 8.16903C22.8733 8.05066 22.7005 7.96188 22.5064 7.9027C22.3146 7.84115 22.1075 7.81037 21.8849 7.81037C21.4896 7.81037 21.1392 7.9098 20.8338 8.10866C20.5284 8.30516 20.2893 8.59399 20.1165 8.97514C19.9437 9.35393 19.8572 9.81676 19.8572 10.3636C19.8572 10.92 19.9437 11.3887 20.1165 11.7699C20.2917 12.1487 20.5308 12.4351 20.8338 12.6293C21.1392 12.821 21.4884 12.9169 21.8814 12.9169C22.0992 12.9169 22.3028 12.8885 22.4922 12.8317C22.6839 12.7725 22.8556 12.6861 23.0071 12.5724C23.161 12.4588 23.29 12.3191 23.3942 12.1534C23.5007 11.9877 23.5741 11.7983 23.6143 11.5852L24.9425 11.5923C24.8928 11.938 24.785 12.2623 24.6193 12.5653C24.456 12.8684 24.2417 13.1359 23.9766 13.3679C23.7114 13.5975 23.4013 13.7775 23.0462 13.9077C22.6911 14.0355 22.2969 14.0994 21.8636 14.0994C21.2244 14.0994 20.6539 13.9515 20.152 13.6555C19.6501 13.3596 19.2547 12.9323 18.9659 12.3736C18.6771 11.8149 18.5327 11.1449 18.5327 10.3636C18.5327 9.58002 18.6783 8.91004 18.9695 8.35369C19.2607 7.79498 19.6572 7.36766 20.1591 7.07173C20.661 6.7758 21.2292 6.62784 21.8636 6.62784C22.2685 6.62784 22.6449 6.68466 22.9929 6.7983C23.3409 6.91193 23.651 7.07884 23.9233 7.29901C24.1955 7.51681 24.4193 7.78433 24.5945 8.10156C24.772 8.41643 24.888 8.77628 24.9425 9.18111ZM28.5069 14.1065C27.96 14.1065 27.4877 13.9929 27.09 13.7656C26.6947 13.536 26.3904 13.2116 26.1774 12.7926C25.9643 12.3712 25.8578 11.8752 25.8578 11.3047C25.8578 10.7436 25.9643 10.2512 26.1774 9.82741C26.3928 9.40128 26.6935 9.06984 27.0794 8.8331C27.4653 8.59399 27.9186 8.47443 28.4395 8.47443C28.7756 8.47443 29.0929 8.52888 29.3912 8.63778C29.6918 8.74432 29.957 8.91004 30.1866 9.13494C30.4186 9.35985 30.6009 9.64631 30.7335 9.99432C30.8661 10.34 30.9324 10.7519 30.9324 11.2301V11.6243H26.4615V10.7578H29.7001C29.6977 10.5116 29.6445 10.2926 29.5403 10.1009C29.4361 9.90672 29.2905 9.75402 29.1035 9.64276C28.9189 9.53149 28.7034 9.47585 28.4572 9.47585C28.1944 9.47585 27.9636 9.53977 27.7647 9.66761C27.5659 9.79309 27.4108 9.95881 27.2995 10.1648C27.1906 10.3684 27.135 10.5921 27.1326 10.8359V11.5923C27.1326 11.9096 27.1906 12.1818 27.3066 12.4091C27.4226 12.634 27.5848 12.8068 27.7931 12.9276C28.0015 13.0459 28.2453 13.1051 28.5247 13.1051C28.7117 13.1051 28.881 13.0791 29.0325 13.027C29.184 12.9725 29.3154 12.8932 29.4267 12.7891C29.5379 12.6849 29.622 12.5559 29.6788 12.402L30.8791 12.5369C30.8033 12.8542 30.6589 13.1312 30.4458 13.3679C30.2351 13.6023 29.9653 13.7846 29.6362 13.9148C29.3071 14.0426 28.9307 14.1065 28.5069 14.1065ZM33.3054 6.72727V14H32.0199V6.72727H33.3054ZM35.9128 6.72727V14H34.6273V6.72727H35.9128Z" fill="white"/>
</svg>
