<svg width="42" height="20" viewBox="0 0 42 20" fill="none" xmlns="http://www.w3.org/2000/svg">
<rect width="42" height="20" rx="4" fill="#1DAFAA"/>
<path d="M15.9379 12.7761L13.1138 9.95199C13.074 9.91223 13.0201 9.88988 12.9638 9.88988C12.9076 9.88988 12.8537 9.91223 12.8139 9.95199L12.1024 10.6635L11.7922 10.3533L13.1621 8.9834C13.4477 8.69781 13.4477 8.23314 13.1621 7.94752L12.0563 6.84173C11.9179 6.70339 11.734 6.62718 11.5383 6.62718C11.3427 6.62718 11.1588 6.70337 11.0204 6.84171L9.65049 8.21161L9.33644 7.89756L10.0479 7.18606C10.1307 7.10326 10.1307 6.96899 10.0479 6.88616L7.22385 4.06209C7.14105 3.9793 7.00682 3.9793 6.92395 4.06209L5.20493 5.78109C5.16517 5.82087 5.14282 5.8748 5.14282 5.93105C5.14282 5.98731 5.16517 6.04124 5.20493 6.081L8.02904 8.90509C8.06882 8.94485 8.12275 8.9672 8.17898 8.9672C8.23522 8.9672 8.28915 8.94485 8.32893 8.90509L9.03653 8.19749L9.35058 8.51154L7.98067 9.88144C7.69508 10.167 7.69508 10.6317 7.98067 10.9173L8.08182 11.0185L7.93177 11.1685C7.68375 11.4166 7.68378 11.8201 7.93179 12.0682C8.05194 12.1883 8.21168 12.2545 8.38162 12.2545C8.55156 12.2545 8.7113 12.1883 8.83147 12.0682L8.9815 11.9181L9.08649 12.0231C9.22483 12.1615 9.40877 12.2377 9.60443 12.2377C9.80009 12.2377 9.984 12.1615 10.1224 12.0231L11.4923 10.6532L11.8025 10.9634L11.0949 11.6711C11.0121 11.7539 11.0121 11.8881 11.0949 11.971L13.919 14.795C13.9604 14.8364 14.0146 14.8571 14.0689 14.8571C14.1232 14.8571 14.1774 14.8364 14.2188 14.795L15.9379 13.076C15.9776 13.0363 16 12.9823 16 12.9261C16 12.8699 15.9776 12.8158 15.9379 12.7761ZM8.65674 6.09478L8.09518 6.65634L7.45372 6.01488L8.01528 5.45332L8.65674 6.09478ZM7.07389 4.51194L7.71537 5.15342L7.15381 5.71497L6.51233 5.07349L7.07389 4.51194ZM5.65478 5.93105L6.21242 5.3734L6.8539 6.01488L6.29625 6.57253L5.65478 5.93105ZM6.59615 6.87242L7.15381 6.31476L7.79527 6.95622L7.23761 7.51388L6.59615 6.87242ZM8.17898 8.45524L7.53752 7.81378L8.09518 7.25613L8.73664 7.89759L8.17898 8.45524ZM8.39507 6.95624L8.95663 6.39469L9.59809 7.03614L9.03653 7.5977L8.39507 6.95624ZM11.3203 7.1416C11.3785 7.08335 11.4559 7.05128 11.5383 7.05128C11.6207 7.05128 11.6981 7.08337 11.7563 7.1416L12.8621 8.24739C12.9824 8.36762 12.9824 8.56326 12.8621 8.68347L12.5147 9.03086L10.9728 7.48896L11.3203 7.1416ZM8.53157 11.7682C8.49151 11.8083 8.43826 11.8304 8.38162 11.8304C8.32498 11.8304 8.27171 11.8083 8.23168 11.7682C8.14902 11.6856 8.14902 11.551 8.23168 11.4684L8.38162 11.3184L8.68153 11.6183L8.53157 11.7682ZM9.82246 11.7232C9.70223 11.8434 9.50661 11.8434 9.3864 11.7232L8.28058 10.6174C8.16034 10.4972 8.16034 10.3015 8.28058 10.1813L8.62799 9.83392L10.1699 11.3758L9.82246 11.7232ZM10.8457 10.7L9.30378 9.15809L10.2971 8.16481L11.839 9.70671L10.8457 10.7ZM14.5466 11.9846L13.9851 12.5462L13.3436 11.9047L13.9052 11.3432L14.5466 11.9846ZM12.9638 10.4018L13.6053 11.0433L13.0437 11.6048L12.4022 10.9634L12.9638 10.4018ZM11.5447 11.821L12.1024 11.2633L12.7438 11.9047L12.1861 12.4624L11.5447 11.821ZM12.486 12.7623L13.0437 12.2046L13.6852 12.8461L13.1275 13.4038L12.486 12.7623ZM14.0689 14.3451L13.4274 13.7037L13.9851 13.146L14.6266 13.7875L14.0689 14.3451ZM14.9264 13.4876L14.285 12.8461L14.8465 12.2845L15.488 12.926L14.9264 13.4876Z" fill="white"/>
<path d="M7.13707 14.2742C6.35887 14.2742 5.72576 13.6411 5.72576 12.8629C5.72576 12.7019 5.59524 12.5714 5.43429 12.5714C5.27334 12.5714 5.14282 12.7019 5.14282 12.8629C5.14282 13.9625 6.03743 14.8571 7.13707 14.8571C7.29802 14.8571 7.42854 14.7266 7.42854 14.5657C7.42854 14.4047 7.29805 14.2742 7.13707 14.2742Z" fill="white"/>
<path d="M7.15232 15.4475C5.7188 15.4475 4.55251 14.2812 4.55251 12.8477C4.55251 12.6951 4.4288 12.5714 4.27625 12.5714C4.12371 12.5714 4 12.6951 4 12.8477C4 14.5858 5.41412 16 7.15232 16C7.30486 16 7.42857 15.8763 7.42857 15.7237C7.42857 15.5712 7.30489 15.4475 7.15232 15.4475Z" fill="white"/>
<path d="M7.14289 13.1428C7.30069 13.1428 7.42861 13.0149 7.42861 12.8571C7.42861 12.6993 7.30069 12.5714 7.14289 12.5714C6.9851 12.5714 6.85718 12.6993 6.85718 12.8571C6.85718 13.0149 6.9851 13.1428 7.14289 13.1428Z" fill="white"/>
<path d="M23.5895 9.04972C23.5303 8.85795 23.4486 8.68632 23.3445 8.5348C23.2427 8.38092 23.1196 8.24953 22.9751 8.14062C22.8331 8.03172 22.6697 7.95005 22.4851 7.8956C22.3004 7.83878 22.0992 7.81037 21.8814 7.81037C21.4908 7.81037 21.1428 7.90862 20.8374 8.10511C20.532 8.30161 20.2917 8.59044 20.1165 8.97159C19.9437 9.35038 19.8572 9.81203 19.8572 10.3565C19.8572 10.9058 19.9437 11.371 20.1165 11.7521C20.2893 12.1333 20.5296 12.4233 20.8374 12.6222C21.1451 12.8187 21.5026 12.9169 21.9098 12.9169C22.2791 12.9169 22.5987 12.8459 22.8686 12.7038C23.1409 12.5618 23.3504 12.3606 23.4972 12.1001C23.6439 11.8374 23.7173 11.5296 23.7173 11.1768L24.0156 11.223H22.0412V10.1932H24.9922V11.0668C24.9922 11.6894 24.8596 12.228 24.5945 12.6825C24.3293 13.1371 23.9647 13.4875 23.5007 13.7337C23.0367 13.9775 22.504 14.0994 21.9027 14.0994C21.2327 14.0994 20.6444 13.9491 20.1378 13.6484C19.6335 13.3454 19.2393 12.9157 18.9553 12.3594C18.6735 11.8007 18.5327 11.1378 18.5327 10.3707C18.5327 9.78362 18.6155 9.25923 18.7812 8.79759C18.9493 8.33594 19.1837 7.94413 19.4844 7.62216C19.785 7.29782 20.1378 7.05161 20.5426 6.88352C20.9474 6.71307 21.3878 6.62784 21.8636 6.62784C22.2661 6.62784 22.6413 6.68703 22.9893 6.8054C23.3374 6.9214 23.6463 7.08712 23.9162 7.30256C24.1884 7.51799 24.4122 7.77367 24.5874 8.0696C24.7625 8.36553 24.8774 8.69223 24.9318 9.04972H23.5895ZM26.2662 14V6.72727H28.9934C29.5521 6.72727 30.0209 6.83144 30.3997 7.03977C30.7808 7.24811 31.0685 7.53456 31.2626 7.89915C31.4591 8.26136 31.5574 8.6733 31.5574 9.13494C31.5574 9.60133 31.4591 10.0156 31.2626 10.3778C31.0661 10.7401 30.7761 11.0253 30.3926 11.2337C30.0091 11.4396 29.5368 11.5426 28.9757 11.5426H27.1681V10.4595H28.7981C29.1248 10.4595 29.3923 10.4027 29.6007 10.2891C29.809 10.1754 29.9629 10.0192 30.0623 9.82031C30.1641 9.62145 30.215 9.39299 30.215 9.13494C30.215 8.87689 30.1641 8.64962 30.0623 8.45312C29.9629 8.25663 29.8078 8.10393 29.5971 7.99503C29.3888 7.88376 29.1201 7.82812 28.791 7.82812H27.5836V14H26.2662ZM36.6541 8.72656C36.621 8.41643 36.4813 8.17495 36.2351 8.00213C35.9912 7.82931 35.674 7.7429 35.2834 7.7429C35.0088 7.7429 34.7732 7.78433 34.5767 7.86719C34.3802 7.95005 34.2299 8.0625 34.1257 8.20455C34.0215 8.34659 33.9683 8.50876 33.9659 8.69105C33.9659 8.84257 34.0002 8.97396 34.0689 9.08523C34.1399 9.1965 34.2358 9.29119 34.3565 9.36932C34.4773 9.44508 34.611 9.509 34.7578 9.56108C34.9046 9.61316 35.0526 9.65696 35.2017 9.69247L35.8835 9.86293C36.1581 9.92685 36.4221 10.0133 36.6754 10.1222C36.9311 10.2311 37.1596 10.3684 37.3608 10.5341C37.5644 10.6998 37.7254 10.8999 37.8438 11.1342C37.9621 11.3686 38.0213 11.6432 38.0213 11.9581C38.0213 12.3842 37.9124 12.7595 37.6946 13.0838C37.4768 13.4058 37.1619 13.6579 36.75 13.8402C36.3404 14.0201 35.8445 14.1101 35.2621 14.1101C34.6963 14.1101 34.205 14.0225 33.7884 13.8473C33.3741 13.6721 33.0497 13.4164 32.8153 13.0803C32.5833 12.7441 32.4579 12.3345 32.4389 11.8516H33.7351C33.754 12.1049 33.8321 12.3156 33.9695 12.4837C34.1068 12.6518 34.2855 12.7772 34.5057 12.8601C34.7282 12.9429 34.9768 12.9844 35.2514 12.9844C35.5379 12.9844 35.7888 12.9418 36.0043 12.8565C36.2221 12.7689 36.3925 12.6482 36.5156 12.4943C36.6387 12.3381 36.7015 12.1558 36.7038 11.9474C36.7015 11.758 36.6458 11.6018 36.5369 11.4787C36.428 11.3532 36.2753 11.2491 36.0788 11.1662C35.8847 11.081 35.6574 11.0052 35.397 10.9389L34.5696 10.7259C33.9706 10.572 33.4972 10.3388 33.1491 10.0263C32.8035 9.71141 32.6307 9.29356 32.6307 8.77273C32.6307 8.34422 32.7467 7.96899 32.9787 7.64702C33.2131 7.32505 33.5315 7.07528 33.9339 6.89773C34.3364 6.7178 34.7921 6.62784 35.3011 6.62784C35.8172 6.62784 36.2694 6.7178 36.6577 6.89773C37.0483 7.07528 37.3549 7.32268 37.5774 7.63991C37.8 7.95478 37.9148 8.317 37.9219 8.72656H36.6541Z" fill="white"/>
</svg>
