<svg width="257" height="132" viewBox="0 0 257 132" fill="none" xmlns="http://www.w3.org/2000/svg">
<g clip-path="url(#clip0_1929_2146)">
<path d="M222.591 55.0481C223.472 55.0481 224.254 55.268 224.938 55.7114C225.619 56.1548 225.961 56.8591 225.961 57.8317V67.8368C225.961 69.2491 226.051 70.516 226.226 71.6451C226.404 72.7741 226.713 73.8436 227.152 74.8609C227.591 75.8781 228.145 76.8693 228.804 77.8419C229.466 78.8145 230.303 79.828 231.319 80.89C232.643 82.3023 233.953 83.6587 235.255 84.9629C236.557 86.2671 237.778 87.4483 238.924 88.5066C239.586 89.0804 239.861 89.7661 239.75 90.5598C239.638 91.3535 239.318 92.0391 238.793 92.613C238.306 93.1421 237.655 93.4738 236.84 93.6042C236.022 93.7383 235.304 93.5147 234.69 92.9409C232.658 91.0405 230.389 88.7674 227.877 86.118C226.91 85.1492 226.103 84.2847 225.463 83.5357C224.823 82.783 224.306 82.1346 223.908 81.5831C223.513 81.0279 223.212 80.5472 223.015 80.1261C222.818 79.7051 222.695 79.3213 222.654 78.9635H222.587C222.498 79.3622 222.356 79.7833 222.159 80.223C221.958 80.6664 221.664 81.162 221.266 81.7173C220.872 82.2688 220.362 82.9171 219.744 83.6698C219.127 84.4188 218.334 85.2796 217.363 86.2522C216.083 87.5787 214.83 88.8457 213.594 90.0605C212.359 91.2752 211.035 92.5459 209.625 93.8725C208.918 94.491 208.17 94.6997 207.374 94.5022C206.581 94.3047 205.941 93.9172 205.458 93.3396C204.926 92.7248 204.639 92.0391 204.595 91.2864C204.55 90.5337 204.836 89.8518 205.458 89.2332C206.957 87.8209 208.408 86.431 209.822 85.0598C211.232 83.6922 212.601 82.3023 213.922 80.8863C214.889 79.8243 215.719 78.8107 216.403 77.8382C217.084 76.8693 217.639 75.8744 218.055 74.8571C218.476 73.8399 218.773 72.7704 218.948 71.6413C219.123 70.516 219.212 69.2491 219.212 67.8331V57.8279C219.212 56.8554 219.555 56.1511 220.236 55.7077C220.92 55.268 221.701 55.0444 222.583 55.0444L222.591 55.0481ZM249.646 52C250.528 52 251.309 52.2199 251.994 52.6596C252.678 53.103 253.021 53.811 253.021 54.7835V97.3789C253.021 98.3515 252.678 99.0595 251.994 99.5029C251.309 99.9426 250.528 100.162 249.646 100.162C248.764 100.162 248.046 99.9426 247.366 99.5029C246.681 99.0595 246.339 98.3515 246.339 97.3789V54.7835C246.339 53.811 246.681 53.103 247.366 52.6596C248.046 52.2199 248.809 52 249.646 52Z" fill="#E61850"/>
<path d="M219.015 101.146C219.897 101.146 220.682 101.366 221.363 101.806C222.047 102.249 222.39 102.957 222.39 103.93V124.913C222.39 125.442 222.498 125.807 222.721 126.004C222.94 126.206 223.294 126.303 223.781 126.303H252.686C253.478 126.303 254.062 126.589 254.442 127.163C254.814 127.741 255.004 128.4 255.004 129.153C255.004 129.906 254.814 130.565 254.442 131.139C254.066 131.717 253.482 132 252.686 132H220.738C218.796 132 217.464 131.646 216.735 130.938C216.005 130.234 215.644 128.93 215.644 127.029V103.926C215.644 102.954 215.987 102.246 216.668 101.802C217.352 101.362 218.133 101.143 219.015 101.143V101.146Z" fill="#E61850"/>
<path d="M100.606 55.3425C102.545 55.3425 103.88 55.6965 104.606 56.4008C105.335 57.1088 105.7 58.413 105.7 60.3097V79.012C105.7 79.9808 105.357 80.6926 104.673 81.1285C103.988 81.572 103.229 81.7918 102.388 81.7918C101.548 81.7918 100.803 81.572 100.141 81.1285C99.479 80.6888 99.1515 79.9808 99.1515 79.012V62.497C99.1515 61.5655 98.6865 61.1071 97.7638 61.1071H86.5799C85.7875 61.1071 85.2034 60.8314 84.8239 60.2799C84.4481 59.7247 84.2621 59.0539 84.2621 58.2602C84.2621 57.4665 84.4518 56.7809 84.8239 56.207C85.1996 55.6332 85.7838 55.3463 86.5799 55.3463H100.606V55.3425ZM125.013 55.3425C126.955 55.3425 128.287 55.6965 129.016 56.4008C129.745 57.1088 130.106 58.413 130.106 60.3097V79.012C130.106 79.9808 129.764 80.6926 129.083 81.1285C128.398 81.572 127.617 81.7918 126.735 81.7918C125.939 81.7918 125.199 81.572 124.518 81.1285C123.833 80.6888 123.491 79.9808 123.491 79.012V62.497C123.491 62.0089 123.394 61.6586 123.193 61.435C122.993 61.2152 122.632 61.1034 122.1 61.1034H111.318C110.525 61.1034 109.941 60.8276 109.562 60.2762C109.186 59.7209 109 59.0502 109 58.2565C109 57.4628 109.189 56.7772 109.562 56.2033C109.937 55.6295 110.521 55.3425 111.318 55.3425H125.009H125.013Z" fill="#E61B50"/>
<path d="M153.929 55.3425C155.867 55.3425 157.203 55.6965 157.928 56.4008C158.657 57.1088 159.022 58.413 159.022 60.3097V85.8162C159.022 86.7851 158.68 87.4968 157.995 87.9328C157.311 88.3762 156.552 88.5961 155.711 88.5961C154.87 88.5961 154.126 88.3762 153.464 87.9328C152.801 87.4931 152.474 86.7851 152.474 85.8162V62.497C152.474 61.5655 152.009 61.1071 151.086 61.1071H142.172C141.379 61.1071 140.795 60.8314 140.416 60.2799C140.04 59.7247 139.854 59.0539 139.854 58.2602C139.854 57.4665 140.044 56.7809 140.416 56.207C140.792 55.6332 141.376 55.3463 142.172 55.3463H153.929V55.3425ZM176.069 55.3425C178.011 55.3425 179.343 55.6965 180.073 56.4008C180.802 57.1088 181.163 58.413 181.163 60.3097V85.8162C181.163 86.7851 180.82 87.4968 180.14 87.9328C179.455 88.3762 178.674 88.5961 177.792 88.5961C176.996 88.5961 176.255 88.3762 175.575 87.9328C174.89 87.4931 174.548 86.7851 174.548 85.8162V62.497C174.548 62.0089 174.451 61.6586 174.25 61.435C174.049 61.2152 173.688 61.1034 173.156 61.1034H164.64C163.848 61.1034 163.263 60.8276 162.884 60.2762C162.508 59.7209 162.322 59.0502 162.322 58.2565C162.322 57.4628 162.512 56.7772 162.884 56.2033C163.26 55.6295 163.844 55.3425 164.64 55.3425H176.066H176.069Z" fill="#E61B50"/>
<path d="M189.586 52C190.468 52 191.242 52.2199 191.9 52.6596C192.562 53.103 192.89 53.811 192.89 54.7835V72.0065H202.217C203.054 72.0065 203.661 72.2823 204.036 72.8338C204.412 73.3853 204.602 74.0597 204.602 74.8534C204.602 75.6471 204.412 76.3328 204.036 76.9066C203.664 77.4805 203.058 77.7674 202.217 77.7674H192.89V97.3752C192.89 98.3478 192.562 99.0558 191.9 99.4992C191.242 99.9389 190.468 100.159 189.586 100.159C188.704 100.159 187.997 99.9389 187.335 99.4992C186.673 99.0558 186.345 98.3478 186.345 97.3752V54.7835C186.345 53.811 186.677 53.103 187.335 52.6596C187.997 52.2199 188.745 52 189.586 52Z" fill="#E61B50"/>
<path d="M109.781 80.4875C110.663 80.4875 111.437 80.7074 112.095 81.1508C112.757 81.5943 113.089 82.2985 113.089 83.2711V92.0652H135.248C136.04 92.0652 136.625 92.3409 137.004 92.8924C137.376 93.4476 137.566 94.096 137.566 94.8487C137.566 95.6014 137.376 96.261 137.004 96.8348C136.628 97.4087 136.044 97.6956 135.248 97.6956H84.3179C83.5254 97.6956 82.9413 97.4087 82.5618 96.8348C82.186 96.261 82 95.5977 82 94.8487C82 94.0997 82.1897 93.4476 82.5618 92.8924C82.9376 92.3409 83.5217 92.0652 84.3179 92.0652H106.477V83.2711C106.477 82.2985 106.808 81.5943 107.471 81.1508C108.129 80.7111 108.903 80.4875 109.785 80.4875H109.781Z" fill="#E61B50"/>
<path d="M165.793 124.827C165.507 124.305 165.12 123.873 164.64 123.556C164.138 123.221 163.557 122.956 162.914 122.77C162.255 122.58 161.548 122.408 160.8 122.252C160.324 122.159 159.874 122.058 159.446 121.95C159.003 121.835 158.605 121.678 158.263 121.488C157.902 121.287 157.612 121.03 157.396 120.717C157.177 120.392 157.065 119.986 157.065 119.502C157.065 118.663 157.4 118.026 158.055 117.605C159.089 116.946 160.927 116.853 163.066 117.247C163.788 117.382 164.554 117.59 165.351 117.87V115.832C164.726 115.593 163.985 115.396 163.141 115.239C161.28 114.896 159.361 114.881 157.917 115.291C157.21 115.492 156.585 115.802 156.057 116.208C155.536 116.614 155.123 117.128 154.822 117.743C154.516 118.358 154.364 119.096 154.364 119.934C154.364 120.687 154.494 121.32 154.751 121.812C155.011 122.308 155.361 122.718 155.796 123.038C156.235 123.362 156.764 123.627 157.355 123.813C157.962 124.003 158.609 124.171 159.282 124.313C159.8 124.413 160.294 124.518 160.763 124.622C161.239 124.726 161.682 124.872 162.08 125.047C162.497 125.233 162.832 125.475 163.077 125.77C163.338 126.083 163.472 126.492 163.472 126.984C163.472 127.528 163.334 127.998 163.066 128.374C162.806 128.739 162.452 129.034 162.021 129.246C161.608 129.451 161.139 129.593 160.622 129.678C159.264 129.898 157.802 129.816 156.477 129.552C155.767 129.406 155.026 129.194 154.282 128.907V130.916C154.84 131.188 155.54 131.411 156.358 131.568C158.297 131.948 160.387 131.907 162.08 131.527C162.958 131.325 163.714 131.016 164.327 130.606C164.93 130.204 165.399 129.686 165.726 129.071C166.054 128.452 166.217 127.707 166.217 126.858C166.217 126.008 166.076 125.348 165.793 124.827Z" fill="#050000"/>
<path d="M112.631 117.035C110.882 115.336 108.758 114.475 106.328 114.475C104.721 114.475 103.199 114.87 101.812 115.649C100.417 116.428 99.3078 117.493 98.5153 118.824C97.7229 120.147 97.3211 121.622 97.3211 123.21C97.3211 125.576 98.1879 127.648 99.8919 129.365C101.596 131.083 103.769 131.955 106.354 131.955C108.94 131.955 110.942 131.106 112.668 129.432C114.394 127.756 115.265 125.684 115.265 123.269C115.265 120.855 114.38 118.734 112.631 117.039V117.035ZM110.659 127.592C109.476 128.762 108.029 129.354 106.354 129.354C104.874 129.354 103.542 128.9 102.396 127.998C100.915 126.839 100.167 125.244 100.167 123.262C100.167 121.484 100.763 119.997 101.938 118.846C103.11 117.691 104.572 117.106 106.295 117.106C108.018 117.106 109.461 117.706 110.652 118.887C111.842 120.072 112.445 121.536 112.445 123.239C112.445 124.942 111.842 126.418 110.663 127.588L110.659 127.592Z" fill="#050000"/>
<path d="M144.758 114.907H141.703L135.058 131.519H137.975L139.422 127.979H147.072L148.467 131.519H151.38L144.758 114.907ZM140.442 125.36L143.254 118.421L146.045 125.36H140.442Z" fill="#050000"/>
<path d="M88.4849 122.278L95.0292 114.907H91.331L85.6275 121.291V114.907H83.5775C83.1348 114.907 82.7776 115.265 82.7776 115.705V131.519H85.6275V123.351L92.0603 131.519H95.7398L88.4849 122.278Z" fill="#050000"/>
<path d="M124.827 122.278L131.371 114.907H127.673L121.969 121.291V114.907H119.916C119.473 114.907 119.116 115.265 119.116 115.705V131.519H121.966V123.351L128.398 131.519H132.078L124.823 122.278H124.827Z" fill="#050000"/>
<path d="M169.858 114.857C169.419 114.857 169.065 115.211 169.065 115.651V131.469H171.867V114.857H169.858Z" fill="#050000"/>
<path d="M189.713 114.907V126.854L181.658 114.907H179.63C179.191 114.907 178.837 115.261 178.837 115.701V131.519H181.661V119.603L189.709 131.519H192.536V114.907H189.713Z" fill="#050000"/>
</g>
<path d="M22.1366 29.992C20.9846 30.784 19.6286 31.372 18.0686 31.756C16.5326 32.14 14.9486 32.332 13.3166 32.332C11.5886 32.332 10.0406 32.092 8.67259 31.612C7.30459 31.156 6.14059 30.448 5.18059 29.488C4.24459 28.528 3.51259 27.34 2.98459 25.924C2.48059 24.508 2.22859 22.84 2.22859 20.92V16.996C2.22859 15.1 2.48059 13.444 2.98459 12.028C3.48859 10.612 4.20859 9.424 5.14459 8.464C6.08059 7.504 7.20859 6.784 8.52859 6.304C9.87259 5.824 11.3726 5.584 13.0286 5.584C14.7086 5.584 16.2566 5.8 17.6726 6.232C19.0886 6.664 20.4086 7.36 21.6326 8.32L19.7966 11.2C18.6686 10.312 17.5646 9.7 16.4846 9.364C15.4046 9.004 14.2526 8.824 13.0286 8.824C10.7726 8.824 8.99659 9.52 7.70059 10.912C6.42859 12.28 5.79259 14.464 5.79259 17.464V20.452C5.79259 23.452 6.47659 25.648 7.84459 27.04C9.23659 28.408 11.0966 29.092 13.4246 29.092C14.4086 29.092 15.3326 29.008 16.1966 28.84C17.0846 28.648 17.8766 28.384 18.5726 28.048V20.74H12.8126V17.68H22.1366V29.992ZM27.8929 5.98H37.1809C38.6449 5.98 39.9169 6.172 40.9969 6.556C42.0769 6.916 42.9649 7.432 43.6609 8.104C44.3809 8.752 44.9089 9.532 45.2449 10.444C45.6049 11.356 45.7849 12.34 45.7849 13.396V14.152C45.7849 15.208 45.5929 16.204 45.2089 17.14C44.8489 18.052 44.3089 18.856 43.5889 19.552C42.8689 20.248 41.9689 20.8 40.8889 21.208C39.8329 21.616 38.5969 21.82 37.1809 21.82H31.4569V31.936H27.8929V5.98ZM31.4569 9.076V18.724H36.5689C40.3129 18.724 42.1849 17.176 42.1849 14.08V13.432C42.1849 11.944 41.7289 10.852 40.8169 10.156C39.9289 9.436 38.6449 9.076 36.9649 9.076H31.4569ZM59.1117 29.092C60.9597 29.092 62.3397 28.72 63.2517 27.976C64.1877 27.232 64.6557 26.344 64.6557 25.312V24.736C64.6557 24.16 64.5597 23.656 64.3677 23.224C64.1757 22.792 63.8517 22.408 63.3957 22.072C62.9397 21.736 62.3517 21.436 61.6317 21.172C60.9117 20.884 60.0237 20.632 58.9677 20.416C57.7437 20.152 56.6037 19.852 55.5477 19.516C54.4917 19.156 53.5797 18.712 52.8117 18.184C52.0437 17.632 51.4317 16.96 50.9757 16.168C50.5437 15.352 50.3277 14.356 50.3277 13.18V12.532C50.3277 11.644 50.5077 10.792 50.8677 9.976C51.2277 9.136 51.7797 8.392 52.5237 7.744C53.2677 7.096 54.1917 6.58 55.2957 6.196C56.4237 5.788 57.7317 5.584 59.2197 5.584C60.8037 5.584 62.2437 5.776 63.5397 6.16C64.8357 6.544 66.0357 7.108 67.1397 7.852L65.4477 10.624C64.4877 9.976 63.5157 9.508 62.5317 9.22C61.5477 8.932 60.4557 8.788 59.2557 8.788C57.6237 8.788 56.3157 9.148 55.3317 9.868C54.3717 10.588 53.8917 11.464 53.8917 12.496V13.072C53.8917 13.672 54.0237 14.188 54.2877 14.62C54.5517 15.028 54.9357 15.388 55.4397 15.7C55.9437 16.012 56.5677 16.288 57.3117 16.528C58.0557 16.744 58.9077 16.96 59.8677 17.176C61.4757 17.536 62.8077 17.956 63.8637 18.436C64.9437 18.892 65.8077 19.42 66.4557 20.02C67.1037 20.62 67.5597 21.292 67.8237 22.036C68.1117 22.78 68.2557 23.596 68.2557 24.484V25.132C68.2557 26.332 68.0157 27.376 67.5357 28.264C67.0797 29.152 66.4437 29.908 65.6277 30.532C64.8117 31.132 63.8277 31.576 62.6757 31.864C61.5477 32.176 60.3237 32.332 59.0037 32.332C57.1557 32.332 55.4517 32.032 53.8917 31.432C52.3557 30.856 51.0477 30.136 49.9677 29.272L51.7677 26.356C52.2477 26.716 52.7997 27.064 53.4237 27.4C54.0477 27.736 54.6837 28.036 55.3317 28.3C55.9797 28.54 56.6277 28.732 57.2757 28.876C57.9477 29.02 58.5597 29.092 59.1117 29.092ZM112.111 28.588V31.612H81.6553V28.588H112.111ZM96.8833 15.412C96.6913 15.82 96.2353 16.336 95.5153 16.96C94.8193 17.584 93.8593 18.28 92.6353 19.048C91.5793 19.72 90.4633 20.416 89.2873 21.136C88.1113 21.832 86.7673 22.6 85.2553 23.44L83.4913 20.632C84.9313 19.84 86.2513 19.096 87.4513 18.4C88.6513 17.704 89.8513 16.948 91.0513 16.132C91.8673 15.58 92.5393 15.052 93.0673 14.548C93.5953 14.044 94.0033 13.516 94.2913 12.964C94.6033 12.412 94.8073 11.812 94.9033 11.164C95.0233 10.492 95.0833 9.712 95.0833 8.824V5.188H98.6833V8.824C98.6833 9.712 98.7313 10.492 98.8273 11.164C98.9233 11.812 99.1273 12.424 99.4393 13C99.7513 13.552 100.195 14.092 100.771 14.62C101.347 15.148 102.127 15.736 103.111 16.384C104.239 17.128 105.367 17.824 106.495 18.472C107.623 19.12 108.895 19.828 110.311 20.596L108.583 23.368C107.239 22.6 105.931 21.856 104.659 21.136C103.387 20.392 102.211 19.672 101.131 18.976C99.9553 18.232 99.0073 17.56 98.2873 16.96C97.5673 16.336 97.1113 15.82 96.9193 15.412H96.8833ZM116.797 27.292V5.836H132.493V27.292H116.797ZM146.245 17.932H141.133V36.04H137.569V2.848H141.133V14.836H146.245V17.932ZM120.325 24.232H128.965V8.896H120.325V24.232ZM175.159 23.116H152.731V5.332H174.655V8.356H156.295V12.748H174.403V15.7H156.295V20.092H175.159V23.116ZM179.083 28.588V31.612H148.627V28.588H179.083ZM202.164 32.584H220.02V35.68H198.6V24.664H202.164V32.584ZM215.808 26.536V2.848H219.336V26.536H215.808ZM206.448 11.92C206.448 11.368 206.352 10.816 206.16 10.264C205.968 9.712 205.668 9.22 205.26 8.788C204.876 8.332 204.372 7.972 203.748 7.708C203.148 7.42 202.416 7.276 201.552 7.276C200.688 7.276 199.944 7.42 199.32 7.708C198.696 7.972 198.18 8.332 197.772 8.788C197.388 9.22 197.1 9.712 196.908 10.264C196.74 10.816 196.656 11.368 196.656 11.92V13.504C196.656 14.056 196.752 14.608 196.944 15.16C197.136 15.712 197.424 16.216 197.808 16.672C198.216 17.104 198.72 17.464 199.32 17.752C199.944 18.016 200.688 18.148 201.552 18.148C202.416 18.148 203.148 18.016 203.748 17.752C204.372 17.464 204.876 17.104 205.26 16.672C205.668 16.216 205.968 15.712 206.16 15.16C206.352 14.608 206.448 14.056 206.448 13.504V11.92ZM193.236 11.776C193.236 10.96 193.404 10.108 193.74 9.22C194.076 8.308 194.592 7.48 195.288 6.736C195.984 5.992 196.848 5.38 197.88 4.9C198.912 4.42 200.136 4.18 201.552 4.18C202.944 4.18 204.156 4.42 205.188 4.9C206.244 5.38 207.12 5.992 207.816 6.736C208.512 7.48 209.028 8.308 209.364 9.22C209.7 10.108 209.868 10.96 209.868 11.776V13.648C209.868 14.464 209.7 15.328 209.364 16.24C209.028 17.128 208.512 17.944 207.816 18.688C207.12 19.432 206.244 20.044 205.188 20.524C204.156 21.004 202.944 21.244 201.552 21.244C200.136 21.244 198.912 21.004 197.88 20.524C196.848 20.044 195.984 19.432 195.288 18.688C194.592 17.944 194.076 17.128 193.74 16.24C193.404 15.328 193.236 14.464 193.236 13.648V11.776ZM229.674 36.256V27.94H247.89V25.42H229.494V22.504H251.382V30.784H233.166V33.34H252.354V36.256H229.674ZM255.774 17.032V19.984H225.318V17.032H238.746V13.54H242.346V17.032H255.774ZM252.102 15.376C250.83 14.896 249.57 14.404 248.322 13.9C247.098 13.396 246.03 12.94 245.118 12.532C243.63 11.884 242.526 11.332 241.806 10.876C241.11 10.396 240.702 9.988 240.582 9.652H240.546C240.426 10.012 240.006 10.42 239.286 10.876C238.59 11.332 237.498 11.884 236.01 12.532C235.098 12.94 234.03 13.396 232.806 13.9C231.582 14.38 230.322 14.86 229.026 15.34L227.658 12.46C229.362 11.86 230.814 11.32 232.014 10.84C233.238 10.36 234.354 9.88 235.362 9.4C236.61 8.824 237.486 8.248 237.99 7.672C238.518 7.072 238.782 6.316 238.782 5.404V3.172H242.31V5.404C242.31 6.316 242.562 7.06 243.066 7.636C243.594 8.212 244.494 8.8 245.766 9.4C246.774 9.88 247.878 10.372 249.078 10.876C250.302 11.356 251.742 11.884 253.398 12.46L252.102 15.376Z" fill="#050000"/>
<defs>
<clipPath id="clip0_1929_2146">
<rect width="173" height="80" fill="white" transform="translate(82 52)"/>
</clipPath>
</defs>
</svg>
